<?xml version="1.0" encoding="UTF-8" standalone="no"?>
<!DOCTYPE svg PUBLIC "-//W3C//DTD SVG 1.1//EN" "http://www.w3.org/Graphics/SVG/1.1/DTD/svg11.dtd">
<svg width="100%" height="100%" viewBox="0 0 512 512" version="1.1" xmlns="http://www.w3.org/2000/svg" xmlns:xlink="http://www.w3.org/1999/xlink" xml:space="preserve" xmlns:serif="http://www.serif.com/" style="fill-rule:evenodd;clip-rule:evenodd;stroke-linejoin:round;stroke-miterlimit:2;">
    <path d="M256.762,20.328C386.494,20.749 491.674,126.188 491.674,256C491.674,386.072 386.072,491.674 256,491.674C213.649,491.674 173.891,480.478 139.535,460.891L139.535,292.39C73.336,290.015 20.326,235.53 20.326,168.761C20.326,101.993 81.422,20.326 256,20.326L256.762,20.328ZM315.317,336.901C327.553,358.092 327.553,384.201 315.318,405.393C303.083,426.584 280.472,439.639 256.003,439.639L256,439.639C232.951,439.639 210.887,435.383 190.55,427.613L190.55,292.471L241.557,292.471C271.327,292.471 298.836,308.353 313.721,334.135C314.25,335.051 314.782,335.973 315.317,336.901ZM256,72.357L256,72.361C357.353,72.361 439.639,154.647 439.639,256C439.639,301.254 423.234,342.707 396.06,374.721L222.281,73.727C232.813,72.939 244.042,72.469 256,72.357ZM190.55,241.456L260.213,241.456L190.55,120.796L190.55,121.052L168.083,82.138C164.026,82.83 159.736,83.831 155.234,85.116C150.563,86.448 145.663,88.085 140.559,89.995L139.535,90.381C86.953,110.469 71.341,143.442 71.341,168.761C71.341,207.37 101.505,238.99 139.535,241.319L190.55,241.456Z" style="fill:rgb(249,216,0);"/>
</svg>
